<?xml version="1.0" encoding="UTF-8"?>
<svg width="20px" height="20px" viewBox="0 0 20 20" version="1.1" xmlns="http://www.w3.org/2000/svg" xmlns:xlink="http://www.w3.org/1999/xlink">
    <!-- Generator: Sketch 42 (36781) - http://www.bohemiancoding.com/sketch -->
    <title>Shape</title>
    <desc>Created with Sketch.</desc>
    <defs></defs>
    <g id="Page-1" stroke="none" stroke-width="1" fill="none" fill-rule="evenodd">
        <g id="Artboard" transform="translate(-55.000000, -51.000000)" fill-rule="nonzero" fill="#FFFFFF">
            <g id="tumblr-with-circle" transform="translate(55.000000, 51.000000)">
                <g id="Tumblr_w_x2F__circle">
                    <path d="M10,0.4 C4.698,0.4 0.4,4.698 0.4,10 C0.4,15.302 4.698,19.6 10,19.6 C15.302,19.6 19.6,15.302 19.6,10 C19.6,4.698 15.302,0.4 10,0.4 Z M12.577,14.141 C12.184,14.329 11.829,14.459 11.511,14.536 C11.193,14.61 10.849,14.649 10.48,14.649 C10.06,14.649 9.689,14.594 9.366,14.487 C9.043,14.38 8.768,14.227 8.54,14.028 C8.312,13.831 8.154,13.618 8.066,13.395 C7.978,13.17 7.934,12.846 7.934,12.422 L7.934,9.16 L6.918,9.16 L6.918,7.846 C7.277,7.727 7.588,7.557 7.845,7.334 C8.102,7.113 8.309,6.848 8.464,6.537 C8.62,6.227 8.727,5.83 8.786,5.352 L10.093,5.352 L10.093,7.702 L12.273,7.702 L12.273,9.16 L10.093,9.16 L10.093,11.545 C10.093,12.084 10.121,12.43 10.178,12.582 C10.234,12.736 10.339,12.857 10.493,12.949 C10.697,13.072 10.93,13.134 11.19,13.134 C11.656,13.134 12.118,12.98 12.578,12.673 L12.578,14.141 L12.577,14.141 Z" id="Shape"></path>
                </g>
            </g>
        </g>
    </g>
</svg>